PathFileType	4	(X/Y/Z)	D:\TRACE\v60_Jaco2_6-2-23\JustBodyDRS_Motion3_3-v60.trc
DataRate	CameraRate	NumFrames	NumMarkers	Units	OrigDataRate	OrigDataStartFrame	OrigNumFrames
100.00	100.00	      17	9	mm	100.00	5251	      7000
Frame#	Time	front left toe			Front right toe			aft left toe			aft right toe			Arm			FL body			FR body			AL Body			AR Body			
		X1	Y1	Z1	X2	Y2	Z2	X3	Y3	Z3	X4	Y4	Z4	X5	Y5	Z5	X6	Y6	Z6	X7	Y7	Z7	X8	Y8	Z8	X9	Y9	Z9	

5251	52.500	-180.00665	138.26286	-125.59148	199.80779	13.32535	-153.84674	-164.17215	23.46697	480.30698	207.42728	143.43964	487.24692	18.57132	1203.31226	-155.62125	-76.41838	572.55090	-270.22208	81.93954	570.49951	-273.69995	-46.83917	559.18158	673.76550	108.23924	546.76868	668.86755	
5252	52.510	-178.70328	132.72702	-126.04678	199.79768	13.23500	-153.87480	-164.16055	23.49641	480.25897	207.91333	137.75920	487.44687	18.88478	1203.60754	-155.02238	-75.91038	572.82947	-269.97653	82.60925	570.66431	-273.35217	-46.68267	559.02338	674.09601	109.01298	546.58142	669.26135	
5253	52.520	-178.06598	127.26323	-126.49680	199.92255	13.08577	-153.84198	-164.12050	23.50397	480.17770	208.73840	131.35806	487.62543	19.00894	1203.72668	-154.69339	-75.34190	573.15485	-269.74622	83.16684	570.76495	-272.81943	-46.76318	558.73853	674.47937	108.94372	546.42535	669.63092	
5254	52.530	-177.78970	121.37331	-126.83727	199.92395	12.95449	-153.80362	-164.20331	23.54971	480.12411	209.62856	124.63481	486.90634	19.31123	1203.66003	-154.01099	-74.70035	573.04938	-269.21048	83.49127	570.71057	-272.44217	-46.82785	558.44800	674.99695	108.25583	546.27924	669.92365	
5255	52.540	-177.40091	114.60792	-127.20695	200.00983	12.92464	-153.76387	-164.22763	23.54529	480.13858	211.27803	117.70098	486.65729	20.68533	1203.60852	-153.34489	-74.27264	573.15979	-268.95016	83.89170	570.58917	-272.06943	-47.10498	558.38837	675.48553	108.27691	546.12396	670.30896	
5256	52.550	-176.93549	107.13001	-127.05360	200.03532	12.90423	-153.78680	-164.22623	23.65037	480.14529	213.71956	110.89976	486.41684	21.29827	1203.56470	-152.96227	-73.58131	572.90497	-268.33557	85.12928	570.54596	-271.99957	-47.08952	558.24524	675.95282	108.46274	545.82727	670.73273	
5257	52.560	-176.65465	99.43021	-127.02594	200.10207	12.87752	-153.77975	-164.13673	23.67674	480.12921	214.81175	102.89678	486.39047	22.30433	1203.48462	-152.42749	-73.04884	572.95544	-268.10141	85.31032	570.52063	-271.35428	-46.86404	558.15472	676.17676	108.67330	545.61786	671.26971	
5258	52.570	-176.08791	91.20119	-126.46747	200.12791	12.78185	-153.78601	-164.10655	23.81214	480.04895	215.20860	94.47829	486.31870	22.81731	1203.46753	-152.09097	-72.75141	573.08020	-267.95264	85.69762	570.57880	-270.88593	-46.51822	558.04480	676.52386	108.60898	545.41772	671.66644	
5259	52.580	-175.35695	82.45944	-125.97606	200.15956	12.70799	-153.76329	-164.42151	24.07651	480.04639	215.57100	85.67999	486.66776	23.53116	1203.41162	-151.62936	-72.20045	573.08167	-267.52423	86.17559	570.69189	-270.32404	-46.00482	557.94946	677.04675	109.91440	545.23248	672.25684	
5260	52.590	-175.10681	73.39756	-125.05858	200.21698	12.65780	-153.80400	-164.74133	24.54817	479.75394	215.83711	77.07243	487.21964	24.28671	1203.38928	-150.95340	-71.51337	572.85266	-266.89288	86.73340	570.65723	-269.84897	-45.89434	557.78088	677.29016	110.22639	545.23163	672.49677	
5261	52.600	-174.67419	64.50503	-123.95560	200.25146	12.60830	-153.84171	-164.33069	24.17224	480.02759	216.29948	69.11827	487.43188	24.58973	1203.37012	-150.46478	-70.89944	572.86224	-266.35873	87.30142	570.59808	-269.37561	-45.89848	557.64844	677.59741	109.48553	545.03693	673.02850	
5262	52.610	-174.23129	56.67574	-123.07915	200.32664	12.58191	-153.82616	-164.32625	24.29037	480.04257	217.15741	61.37711	487.89194	25.08169	1203.28027	-149.92053	-70.72419	572.95599	-266.28006	87.89616	570.64624	-268.88394	-45.62571	557.57556	678.36194	110.10019	544.88684	673.45441	
5263	52.620	-174.02322	49.10801	-122.15347	200.34010	12.58329	-153.84474	-164.36620	24.48822	480.02957	217.30719	53.97891	488.31863	25.51305	1203.21313	-149.50784	-69.72012	572.92365	-265.48254	88.21481	570.57031	-268.57788	-45.16795	557.43390	678.85632	110.46615	544.63934	673.85724	
5264	52.630	-174.22171	42.07182	-121.11725	200.41837	12.55214	-153.82114	-164.41832	24.35230	480.37744	217.44383	46.85021	488.85657	26.12352	1203.09399	-149.11296	-69.30302	573.04590	-265.20035	88.73711	570.49731	-268.15192	-44.75119	557.22687	679.04364	110.72369	544.29767	674.31665	
5265	52.640	-174.11134	35.58124	-120.32157	200.53198	12.47214	-153.77013	-164.28358	24.61100	479.99591	217.97084	40.31224	489.71909	26.89909	1203.14795	-148.28313	-68.58034	572.86023	-264.56967	89.71277	570.46869	-267.71951	-44.26646	556.88593	679.20386	112.14974	543.93323	675.02966	
5266	52.650	-173.95436	29.09684	-119.57216	200.68205	12.36882	-153.67761	-164.27429	24.63069	479.99692	218.23753	33.96006	490.38437	27.61057	1203.19861	-147.59555	-68.00429	572.98682	-264.07147	90.07158	570.49066	-267.20944	-43.44080	556.84009	680.08112	112.32627	543.68274	675.54718	
5267	52.660	-173.79642	22.61594	-118.70493	200.91084	12.27746	-153.67444	-164.20541	24.71437	480.03598	218.90820	27.39634	491.09256	28.29339	1203.29797	-146.92816	-67.54825	573.09216	-263.85352	90.71474	570.40686	-266.42865	-43.07361	556.64642	680.57025	111.66507	543.69873	676.02374	
